<?xml version="1.0" encoding="UTF-8" standalone="no"?>
<svg
   width="257.67822"
   height="62.958202"
   viewBox="59.916 71.241 257.67822 62.958204"
   version="1.1"
   id="svg2"
   sodipodi:docname="JASP.svg"
   inkscape:version="1.4.3 (0d15f75042, 2025-12-25)"
   xmlns:inkscape="http://www.inkscape.org/namespaces/inkscape"
   xmlns:sodipodi="http://sodipodi.sourceforge.net/DTD/sodipodi-0.dtd"
   xmlns="http://www.w3.org/2000/svg"
   xmlns:svg="http://www.w3.org/2000/svg">
  <defs
     id="defs2" />
  <sodipodi:namedview
     id="namedview2"
     pagecolor="#ffffff"
     bordercolor="#000000"
     borderopacity="0.25"
     inkscape:showpageshadow="2"
     inkscape:pageopacity="0.0"
     inkscape:pagecheckerboard="0"
     inkscape:deskcolor="#d1d1d1"
     inkscape:zoom="2.5568981"
     inkscape:cx="29.723515"
     inkscape:cy="-37.154394"
     inkscape:window-width="1140"
     inkscape:window-height="1022"
     inkscape:window-x="0"
     inkscape:window-y="0"
     inkscape:window-maximized="1"
     inkscape:current-layer="svg2" />
  <rect
     style="fill:#1c93cf;fill-opacity:1;stroke-width:12.2862;stroke-linecap:round"
     id="rect2"
     width="257.67822"
     height="62.958202"
     x="59.916"
     y="71.240997" />
  <g
     id="g2"
     transform="translate(3.8396121,2.7201013)">
    <path
       d="m 172.33,114.522 c -0.342,1.936 -1.025,3.645 -2.164,5.239 -1.139,1.595 -2.733,2.961 -4.784,4.1 -2.164,1.139 -4.897,1.595 -8.542,1.595 -2.05,0 -3.986,-0.228 -5.809,-0.797 -1.936,-0.569 -3.531,-1.481 -5.011,-2.62 -1.481,-1.139 -2.62,-2.733 -3.531,-4.556 -0.911,-1.822 -1.367,-4.1 -1.367,-6.72 v -4.214 h 9.567 v 2.278 c 0,1.139 0.114,2.278 0.228,3.189 0.228,1.025 0.456,1.822 0.911,2.506 0.455,0.684 1.025,1.253 1.822,1.595 0.797,0.456 1.822,0.683 3.075,0.683 1.367,0 2.506,-0.228 3.189,-0.683 0.797,-0.456 1.367,-1.139 1.595,-1.936 0.342,-0.797 0.569,-1.595 0.569,-2.506 0.114,-0.911 0.114,-1.822 0.114,-2.62 V 76.481 h 10.592 v 32.916 a 27.387,27.387 0 0 1 -0.454,5.125 z m 33.713,-38.041 17.995,47.95 h -10.934 l -3.645,-10.706 h -17.995 l -3.759,10.706 h -10.592 l 18.109,-47.95 z m 0.57,29.498 -6.036,-17.654 h -0.114 l -6.264,17.654 z m 29.613,6.72 a 7.706,7.706 0 0 0 2.278,2.733 c 0.911,0.683 2.05,1.253 3.417,1.595 1.253,0.342 2.62,0.456 3.986,0.456 0.911,0 1.936,-0.114 3.075,-0.228 1.025,-0.114 2.05,-0.456 3.075,-0.911 0.911,-0.456 1.708,-1.025 2.392,-1.822 0.683,-0.797 0.911,-1.822 0.911,-2.961 0,-1.253 -0.456,-2.392 -1.253,-3.189 -0.797,-0.797 -1.936,-1.481 -3.303,-2.05 a 23.907,23.907 0 0 0 -4.556,-1.367 c -1.708,-0.456 -3.417,-0.797 -5.125,-1.367 -1.822,-0.456 -3.531,-1.025 -5.239,-1.595 -1.708,-0.683 -3.189,-1.481 -4.556,-2.506 -1.367,-1.025 -2.392,-2.278 -3.303,-3.872 -0.797,-1.595 -1.253,-3.417 -1.253,-5.581 0,-2.506 0.569,-4.556 1.595,-6.378 1.025,-1.822 2.392,-3.303 4.1,-4.556 1.708,-1.253 3.645,-2.05 5.809,-2.733 2.164,-0.569 4.328,-0.911 6.492,-0.911 2.506,0 4.898,0.228 7.175,0.797 2.278,0.569 4.328,1.481 6.15,2.733 1.822,1.253 3.189,2.847 4.214,4.784 1.025,1.936 1.595,4.328 1.595,7.062 h -10.251 c -0.114,-1.481 -0.342,-2.62 -0.911,-3.531 -0.569,-0.911 -1.253,-1.708 -2.05,-2.164 -0.797,-0.569 -1.822,-0.911 -2.961,-1.139 -1.139,-0.228 -2.278,-0.342 -3.645,-0.342 -0.797,0 -1.708,0.114 -2.506,0.228 -0.797,0.228 -1.595,0.456 -2.278,0.911 a 6.105,6.105 0 0 0 -1.708,1.708 c -0.456,0.683 -0.683,1.481 -0.683,2.506 0,0.911 0.228,1.708 0.569,2.278 0.342,0.569 1.025,1.139 2.164,1.595 1.025,0.456 2.506,1.025 4.328,1.481 1.822,0.456 4.328,1.139 7.289,1.936 0.911,0.228 2.164,0.456 3.759,1.025 1.595,0.456 3.189,1.253 4.784,2.278 1.595,1.025 2.961,2.392 4.1,4.1 1.139,1.708 1.708,3.986 1.708,6.606 0,2.164 -0.456,4.214 -1.253,6.15 -0.797,1.936 -2.164,3.531 -3.759,4.897 -1.595,1.367 -3.759,2.392 -6.264,3.189 -2.506,0.797 -5.353,1.139 -8.656,1.139 -2.62,0 -5.239,-0.342 -7.745,-1.025 -2.506,-0.683 -4.67,-1.708 -6.606,-3.075 -1.936,-1.367 -3.417,-3.189 -4.556,-5.353 -1.139,-2.164 -1.708,-4.67 -1.595,-7.631 h 10.251 a 7.795,7.795 0 0 0 0.799,4.1 z m 57.175,-36.218 c 2.961,0 5.581,0.456 7.631,1.367 2.05,0.911 3.872,2.05 5.125,3.417 1.367,1.481 2.278,3.075 2.847,4.897 0.569,1.822 0.911,3.759 0.911,5.695 0,1.936 -0.342,3.872 -0.911,5.695 -0.569,1.822 -1.595,3.531 -2.847,4.897 -1.367,1.481 -3.075,2.62 -5.125,3.417 -2.05,0.911 -4.67,1.367 -7.631,1.367 h -11.048 v 17.198 h -10.592 v -47.95 z m -2.847,22.665 c 1.253,0 2.392,-0.114 3.531,-0.228 a 11.325,11.325 0 0 0 2.961,-1.025 7.462,7.462 0 0 0 2.05,-2.164 c 0.569,-0.911 0.797,-2.164 0.797,-3.645 0,-1.481 -0.228,-2.733 -0.797,-3.645 -0.569,-0.911 -1.253,-1.708 -2.05,-2.164 -0.797,-0.569 -1.822,-0.911 -2.961,-1.025 -1.139,-0.228 -2.278,-0.228 -3.531,-0.228 h -8.2 v 14.351 h 8.2 z"
       fill="#ffffff"
       id="path1" />
    <circle
       fill="#8bc53d"
       cx="87.933998"
       cy="99.829002"
       r="28.018"
       id="circle1" />
    <path
       fill="#ffffff"
       d="m 130.417,128.759 c -0.683,0 -1.139,-0.456 -1.139,-1.139 V 72.38 c 0,-0.683 0.456,-1.139 1.139,-1.139 0.683,0 1.139,0.456 1.139,1.139 v 55.239 c 0,0.57 -0.456,1.14 -1.139,1.14 z M 102.057,79.556 C 101.715,79.1 101.26,78.759 100.69,78.645 h -0.342 c -1.025,0 -1.936,0.683 -2.05,1.708 v 0.342 L 91.465,83.2 c -0.342,-0.456 -0.911,-0.797 -1.481,-0.911 -1.367,-0.228 -2.62,0.683 -2.847,1.936 -0.228,1.025 0.342,2.05 1.253,2.506 l -5.239,29.841 c -0.797,0 -1.481,0.456 -1.936,1.025 l -7.175,-3.872 v -0.228 c 0.114,-0.456 0,-1.025 -0.342,-1.481 a 1.164,1.164 0 0 0 -0.683,-0.569 l 1.025,-5.695 c 0.342,0 0.683,-0.228 0.911,-0.342 l 8.428,4.67 0.228,-1.253 -7.973,-4.442 v -0.57 l 3.303,-1.025 0.228,0.228 c 0.114,0.114 0.114,0.114 0.228,0.114 l -0.569,3.075 0.797,0.456 0.569,-3.303 c 0.797,-0.114 1.481,-0.683 1.481,-1.595 0,-0.911 -0.683,-1.595 -1.595,-1.595 -0.569,0 -1.139,0.342 -1.367,0.911 l -0.114,0.456 v 0.342 l -3.189,1.025 c 0,0 0,-0.114 -0.114,-0.114 -0.342,-0.456 -0.683,-0.683 -1.253,-0.797 h -0.342 c -0.911,0 -1.708,0.683 -1.936,1.595 -0.114,0.797 0.228,1.595 1.025,2.05 l -1.025,5.695 c -0.797,0.114 -1.481,0.683 -1.595,1.595 -0.114,0.456 0,1.025 0.342,1.481 0.342,0.456 0.683,0.683 1.253,0.797 0.569,0.114 1.025,0 1.481,-0.342 l 7.403,3.986 c 0,0.569 0.114,1.139 0.456,1.595 0.342,0.569 0.911,0.911 1.595,1.025 h 0.456 c 1.139,0 2.164,-0.797 2.392,-2.05 v -0.228 l 7.062,-2.506 c 0.342,0.342 0.797,0.569 1.253,0.683 h 0.342 c 1.025,0 1.936,-0.683 2.05,-1.708 0.114,-0.569 0,-1.139 -0.342,-1.595 -0.114,-0.228 -0.342,-0.342 -0.456,-0.456 l 5.353,-30.638 c 0.797,-0.228 1.481,-0.797 1.595,-1.708 0.112,-0.569 -0.002,-1.139 -0.344,-1.708 z m -21.982,21.64 c 0.342,0 0.569,0.228 0.569,0.569 0,0.341 -0.228,0.569 -0.569,0.569 -0.342,0 -0.569,-0.228 -0.569,-0.569 0.114,-0.341 0.341,-0.569 0.569,-0.569 z m 4.214,17.995 c -0.114,0.683 -0.797,1.139 -1.367,1.025 -0.342,0 -0.569,-0.228 -0.797,-0.456 -0.114,-0.228 -0.228,-0.342 -0.228,-0.569 v -0.228 c 0,-0.114 0.114,-0.228 0.114,-0.342 0.228,-0.342 0.569,-0.569 1.025,-0.569 h 0.228 c 0.228,0 0.456,0.228 0.683,0.342 v 0.114 c 0.114,0.114 0.114,0.228 0.114,0.228 0.228,0 0.228,0.228 0.228,0.455 z m 14.921,-36.56 -5.353,30.524 c -0.911,0.114 -1.595,0.797 -1.822,1.708 v 0.228 l -7.062,2.506 c -0.114,-0.228 -0.342,-0.342 -0.456,-0.569 L 89.87,86.96 a 2.181,2.181 0 0 0 1.936,-1.936 v -0.342 l 6.834,-2.506 c 0.228,0.227 0.342,0.341 0.57,0.455 z M 89.756,85.82 H 89.3 c -0.114,0 -0.342,-0.114 -0.456,-0.228 -0.342,-0.228 -0.569,-0.683 -0.569,-1.253 0.114,-0.683 0.683,-1.139 1.367,-1.025 0.228,0 0.569,0.228 0.683,0.456 0.228,0.228 0.342,0.569 0.228,0.911 0.001,0.683 -0.341,1.025 -0.797,1.139 z m 3.189,29.157 h 0.228 c 0.114,-0.342 0.342,-0.569 0.683,-0.683 h 0.342 c 0.228,0 0.342,0.114 0.569,0.342 v 0.114 c 0.114,0.228 0.228,0.456 0.114,0.683 -0.114,0.456 -0.569,0.797 -1.025,0.683 -0.228,0 -0.342,-0.114 -0.456,-0.228 l -0.114,-0.114 c -0.114,-0.114 -0.114,-0.228 -0.114,-0.456 v -0.228 z m 6.492,-34.282 c 0.114,-0.456 0.456,-0.797 0.911,-0.797 h 0.114 c 0.114,0 0.342,0.114 0.456,0.228 0.228,0.228 0.342,0.569 0.342,0.797 0,0.342 -0.228,0.569 -0.569,0.683 -0.114,0 -0.342,0.114 -0.456,0 -0.228,0 -0.456,-0.228 -0.569,-0.342 -0.229,-0.114 -0.229,-0.341 -0.229,-0.569 z m -26.651,32.688 c -0.114,0.228 -0.228,0.456 -0.456,0.569 -0.114,0.114 -0.228,0.114 -0.456,0 -0.228,0 -0.342,-0.114 -0.456,-0.342 -0.114,-0.114 -0.114,-0.342 -0.114,-0.456 0,-0.228 0.228,-0.456 0.569,-0.569 h 0.228 c 0.114,0 0.228,0 0.228,0.114 0.114,0 0.114,0.114 0.228,0.228 0.115,0.114 0.229,0.228 0.229,0.456 z m 0.228,-9.568 c 0.114,-0.342 0.342,-0.569 0.683,-0.569 h 0.114 c 0.228,0 0.342,0.114 0.456,0.342 0.114,0.114 0.114,0.342 0.114,0.456 v 0.114 c 0,0.228 -0.228,0.342 -0.342,0.456 l -0.114,0.114 h -0.342 c -0.114,0 -0.228,0 -0.228,-0.114 -0.341,-0.229 -0.455,-0.571 -0.341,-0.799 z"
       id="path2" />
  </g>
</svg>
