<?xml version="1.0" encoding="UTF-8" standalone="no"?>
<!-- Generator: Adobe Illustrator 25.0.1, SVG Export Plug-In . SVG Version: 6.00 Build 0)  -->

<svg
   version="1.1"
   id="Capa_1"
   x="0px"
   y="0px"
   viewBox="0 0 763.23761 242.73268"
   xml:space="preserve"
   sodipodi:docname="Logo_UEB.svg"
   inkscape:version="1.2.2 (b0a8486541, 2022-12-01)"
   width="763.23761"
   height="242.73268"
   xmlns:inkscape="http://www.inkscape.org/namespaces/inkscape"
   xmlns:sodipodi="http://sodipodi.sourceforge.net/DTD/sodipodi-0.dtd"
   xmlns:xlink="http://www.w3.org/1999/xlink"
   xmlns="http://www.w3.org/2000/svg"
   xmlns:svg="http://www.w3.org/2000/svg"><defs
   id="defs51"><clipPath
     clipPathUnits="userSpaceOnUse"
     id="clipPath3711"><g
       id="g3717"
       transform="translate(-1.0616016e-5,-1.6268429e-5)"><g
         id="g3715"
         transform="matrix(0.99999865,0,0,0.99999951,-2.702442e-5,1.566094e-5)"><path
           d="m 1531.387,2698.699 h 423.57 v 142.953 h -423.57 z"
           id="path3713" /></g></g></clipPath></defs><sodipodi:namedview
   id="namedview49"
   pagecolor="#ffffff"
   bordercolor="#666666"
   borderopacity="1.0"
   inkscape:pageshadow="2"
   inkscape:pageopacity="0.0"
   inkscape:pagecheckerboard="0"
   showgrid="false"
   inkscape:zoom="0.39636504"
   inkscape:cx="-180.38927"
   inkscape:cy="174.08195"
   inkscape:window-width="1920"
   inkscape:window-height="1014"
   inkscape:window-x="1920"
   inkscape:window-y="29"
   inkscape:window-maximized="1"
   inkscape:current-layer="g44"
   inkscape:showpageshadow="2"
   inkscape:deskcolor="#d1d1d1" />
<style
   type="text/css"
   id="style2">
	.st0{clip-path:url(#SVGID_2_);fill:#EB8906;}
	.st1{clip-path:url(#SVGID_2_);fill:#374323;}
	.st2{clip-path:url(#SVGID_2_);fill-rule:evenodd;clip-rule:evenodd;fill:#374323;}
</style>
<g
   id="g46"
   transform="translate(947.11556,-604.25713)">
	<g
   id="g44">
		<defs
   id="defs5">
			<rect
   id="SVGID_1_"
   x="0.75702882"
   y="-0.1805025"
   width="226.96594"
   height="207.24101" />
		</defs>
		<clipPath
   id="SVGID_2_">
			<use
   xlink:href="#SVGID_1_"
   style="overflow:visible"
   id="use7"
   x="0"
   y="0"
   width="100%"
   height="100%" />
		</clipPath>
		
		
		
		
		
		
		
		
		
		
		
		
		
		
		
		
		
	<g
   id="g5630"><g
     id="g886"
     transform="matrix(1.0442602,0,0,1.0442602,-641.62299,47.830918)"><g
       id="g903"><path
         class="st0"
         d="m 141.9294,7.7334075 c 0,1.0070186 0.867,1.8250117 1.93603,1.8250117 1.07099,0 1.93799,-0.8179932 1.93799,-1.8250117 0,-1.0059814 -0.867,-1.8209839 -1.93799,-1.8209839 -1.06903,0 -1.93603,0.8150025 -1.93603,1.8209839 m 15.34601,9.5840155 c 0,-1.006012 0.87097,-1.822999 1.93798,-1.822999 1.07196,0 1.93695,0.816987 1.93695,1.822999 0,1.007996 -0.86499,1.822998 -1.93695,1.822998 -0.73797,0 -1.38397,-0.390991 -1.70898,-0.963013 0.83398,2.281006 1.41302,4.684021 1.58899,7.068024 0.095,0.800995 0.14899,1.548981 0.17303,2.248993 0.21601,-0.786988 0.97498,-1.368012 1.87696,-1.368012 1.07202,0 1.93799,0.818024 1.93799,1.822998 0,1.007019 -0.86597,1.825012 -1.93799,1.825012 -0.88697,0 -1.63697,-0.565002 -1.86298,-1.334014 -0.044,4.202024 -1.30902,6.400999 -2.06903,7.326017 l -0.20197,0.243988 c 0.28498,-0.154999 0.61701,-0.246979 0.97101,-0.246979 1.06897,0 1.93598,0.814972 1.93598,1.824982 0,1.006012 -0.86701,1.822998 -1.93598,1.822998 -1.07104,0 -1.93902,-0.816986 -1.93902,-1.822998 0,-0.209992 0.037,-0.408997 0.10498,-0.596008 -1.48096,1.636016 -3.06195,3.10202 -4.823,4.674011 0.27502,-0.140991 0.58905,-0.222992 0.92206,-0.222992 1.06994,0 1.93695,0.817993 1.93695,1.825989 0,1.006012 -0.86701,1.822998 -1.93695,1.822998 -1.07001,0 -1.93701,-0.816986 -1.93701,-1.822998 0,-0.35199 0.10498,-0.681 0.28796,-0.958985 -1.54498,1.369995 -3.22797,2.842987 -5.09296,4.58899 -0.79901,0.868011 -0.57605,1.66101 0.78797,2.756988 0.60699,0.537995 1.21899,1.102997 1.82904,1.679016 -0.14203,-0.25 -0.22003,-0.53601 -0.22003,-0.838013 0,-1.009979 0.86798,-1.825988 1.93597,-1.825988 1.07202,0 1.93903,0.816009 1.93903,1.825988 0,1.005005 -0.86701,1.821015 -1.93903,1.821015 -0.33496,0 -0.65594,-0.082 -0.93298,-0.223999 1.72699,1.678985 3.39898,3.427978 4.84698,4.947998 -0.13299,-0.244995 -0.20996,-0.527008 -0.20996,-0.822998 0,-1.009003 0.86701,-1.822998 1.93799,-1.822998 1.07202,0 1.94,0.813995 1.94,1.822998 0,1.005981 -0.86798,1.821991 -1.94,1.821991 -0.39398,0 -0.76001,-0.109009 -1.06598,-0.299988 0.80701,0.845978 1.52197,1.598999 2.11896,2.198975 1.79199,1.917999 1.89905,3.415008 0.10602,5.528015 -0.51398,0.563995 -1.21302,1.27301 -2.03101,2.071991 0.24701,-0.104981 0.52002,-0.165985 0.81403,-0.165985 1.06597,0 1.93499,0.815979 1.93499,1.820984 0,1.010009 -0.86902,1.825012 -1.93499,1.825012 -1.07502,0 -1.94104,-0.815003 -1.94104,-1.825012 0,-0.252991 0.058,-0.496003 0.15704,-0.71698 -1.58905,1.518981 -3.48004,3.268981 -5.32404,4.972991 0.28504,-0.153015 0.61304,-0.242004 0.96503,-0.242004 1.07001,0 1.93701,0.815002 1.93701,1.822998 0,1.006989 -0.867,1.822998 -1.93701,1.822998 -1.07001,0 -1.93799,-0.816009 -1.93799,-1.822998 0,-0.34201 0.10401,-0.664001 0.276,-0.937988 -1.73401,1.603973 -3.388,3.136978 -4.66205,4.365982 -1.294,1.354996 -0.63494,1.567001 0.448,3.001999 l 1.55506,1.824997 c -0.10804,-0.224991 -0.16706,-0.474991 -0.16706,-0.733994 0,-1.008011 0.86805,-1.824005 1.94001,-1.824005 1.07,0 1.93499,0.815994 1.93499,1.824005 0,1.005997 -0.86499,1.822998 -1.93499,1.822998 -0.42298,0 -0.81397,-0.128006 -1.13196,-0.343994 1.39801,1.618988 3.00195,3.447998 4.54095,5.185989 -0.13098,-0.246994 -0.203,-0.520996 -0.203,-0.815994 0,-1.005005 0.86603,-1.822998 1.93701,-1.822998 1.07001,0 1.93701,0.817993 1.93701,1.822998 0,1.005997 -0.867,1.824997 -1.93701,1.824997 -0.43799,0 -0.83801,-0.136993 -1.164,-0.365997 l 1.07904,1.210998 c 2.08197,2.352005 2.08197,3.621002 0.17896,5.447006 l -1.36701,1.10199 c 0.20203,-0.06799 0.42401,-0.104996 0.651,-0.104996 1.07105,0 1.93805,0.815003 1.93805,1.822007 0,1.007993 -0.867,1.821003 -1.93805,1.821003 -1.06897,0 -1.93597,-0.81301 -1.93597,-1.821003 0,-0.308014 0.079,-0.600006 0.22497,-0.853012 -2.18194,1.776005 -4.17498,3.443995 -6.138,5.033005 0.20502,-0.067 0.42804,-0.107 0.66101,-0.107 1.068,0 1.93604,0.81499 1.93604,1.825 0,1.00501 -0.86804,1.821 -1.93604,1.821 -1.07196,0 -1.93896,-0.81599 -1.93896,-1.821 0,-0.32001 0.086,-0.617 0.23797,-0.87601 -1.37298,1.099 -2.747,2.16901 -4.17297,3.22501 -1.47204,1.23399 -1.82001,1.685 -0.91101,2.433 1.99298,1.677 4.01996,3.369 5.68597,5.008 -0.17199,-0.27401 -0.27496,-0.592 -0.27496,-0.934 0,-1.00399 0.86798,-1.82299 1.93897,-1.82299 1.07,0 1.93798,0.819 1.93798,1.82299 0,1.00899 -0.86798,1.821 -1.93798,1.821 -0.40998,0 -0.78901,-0.117 -1.10199,-0.319 2.02197,2.084 3.37298,4.07 3.22302,5.804 -0.54199,3.452 -4.09204,3.071 -6.219,1.76799 -4.255,-2.84098 -7.72503,-7.22399 -11.62304,-12.37699 -1.97401,-3.253 -3.18897,-4.41401 0.531,-6.952 2.59101,-2.07201 5.875,-4.593003 11.72699,-8.893997 1.67304,-1.214997 1.69501,-1.684998 0.20002,-3.473008 -3.10401,-3.457 -6.64502,-7.26799 -8.69898,-10.033996 -1.17102,-1.440003 -1.07501,-2.981003 0.12396,-4.306 3.41803,-4.057007 9.56403,-9.306976 12.61701,-12.149994 1.30401,-1.187988 1.59704,-1.915008 0.54901,-3.010986 -5.98401,-5.74701 -8.39099,-8.865998 -11.67798,-12.313019 -1.70099,-2.273987 -1.302,-3.414002 0.534,-5.300995 1.98901,-2.048004 2.21301,-2.152008 7.02398,-6.665985 7.06501,-6.466002 7.99604,-6.624998 5.21601,-11.802 -3.79798,-7.156006 -17.15503,-19.8000184 -13.38898,-22.7019959 4.07098,-3.3659973 9.42096,-2.0760193 15.52399,2.7739868 1.12396,0.8160095 2.31201,2.0050049 3.46301,3.4570003 -0.09,-0.2130127 -0.14099,-0.4440002 -0.14099,-0.6879883 0,-1.0050044 0.86694,-1.8210139 1.93695,-1.8210139 1.07202,0 1.93805,0.8160095 1.93805,1.8210139 0,1.0090027 -0.86603,1.8239751 -1.93805,1.8239751 -0.482,0 -0.92297,-0.164978 -1.263,-0.437989 1.57605,2.123993 3.04199,4.731018 4.13,7.546998 -0.026,-0.110992 -0.037,-0.22699 -0.037,-0.343994 M 114.26942,120.08541 c 6.71899,-22.276 9.59497,-46.875991 9.59497,-70.039992 0,-10.990998 -1.146,-22.058989 -3.52198,-32.833008 l 10.222,-0.002 c 1.87701,11.346985 2.64697,22.850005 2.64697,34.333008 0,26.699982 -3.62695,52.507972 -13.922,77.462982 l -1.568,0.062 h -3.47699 -3.50097 l -1.56702,-0.062 C 98.880379,104.05141 95.253426,78.243416 95.253426,51.543434 c 0,-11.483002 0.769958,-22.986021 2.646972,-34.333008 l 9.812012,0.002 c -2.37799,10.774017 -3.11401,21.842009 -3.11401,32.833008 0,23.164001 2.87701,47.763992 9.596,70.039996 h 0.075 z M 69.363411,25.245432 c 0.179016,-2.384003 0.755981,-4.787018 1.589966,-7.068024 -0.325989,0.572022 -0.968994,0.963013 -1.709961,0.963013 -1.069031,0 -1.937012,-0.815003 -1.937012,-1.822998 0,-1.006012 0.867981,-1.822999 1.937012,-1.822999 1.07196,0 1.937988,0.816987 1.937988,1.822999 0,0.117004 -0.01001,0.233002 -0.034,0.343994 1.091003,-2.826997 2.567016,-5.444001 4.148986,-7.57599 -0.335022,0.256989 -0.762024,0.411988 -1.229004,0.411988 -1.070007,0 -1.937011,-0.8159794 -1.937011,-1.8240055 0,-1.006988 0.867004,-1.8229976 1.937011,-1.8229976 1.072022,0 1.937989,0.8160095 1.937989,1.8229976 0,0.2330017 -0.04596,0.4520264 -0.127991,0.6570129 C 77.005375,7.9164214 78.169376,6.7604156 79.27338,5.9594207 85.376407,1.1094146 90.726383,-0.1805634 94.795414,3.1854339 98.561405,6.0874114 85.20441,18.731424 81.407413,25.88743 c -2.781006,5.177002 -1.851013,5.335998 5.21399,11.802 4.812988,4.513977 5.034973,4.617981 7.026977,6.665985 1.835022,1.886993 2.233032,3.027008 0.531983,5.300995 -3.287964,3.447021 -5.691956,6.566009 -11.676941,12.313018 -1.046021,1.095978 -0.755005,1.822998 0.546997,3.010987 3.053955,2.843017 9.199951,8.092987 12.617981,12.149994 1.200989,1.324997 1.294006,2.865997 0.125976,4.305999 -2.057006,2.766007 -5.597961,6.576996 -8.698974,10.033997 -1.499024,1.78801 -1.475037,2.258011 0.200012,3.473007 5.848999,4.300995 9.134949,6.821988 11.725952,8.893998 3.719064,2.53799 2.503054,3.699 0.532044,6.952 -3.898011,5.153 -7.369996,9.53601 -11.624024,12.37699 -2.127014,1.30301 -5.675964,1.68401 -6.218994,-1.76799 -0.151977,-1.734 1.200989,-3.72 3.221985,-5.804 -0.312988,0.202 -0.691956,0.319 -1.101013,0.319 -1.069947,0 -1.937989,-0.81201 -1.937989,-1.821 0,-1.00399 0.868042,-1.82299 1.937989,-1.82299 1.069031,0 1.937011,0.819 1.937011,1.82299 0,0.342 -0.100952,0.65999 -0.27301,0.93399 1.665039,-1.63899 3.692017,-3.33099 5.686035,-5.00799 0.909973,-0.748 0.559998,-1.19901 -0.908996,-2.433 -1.483032,-1.09601 -2.906006,-2.20801 -4.332032,-3.352 0.282044,0.315 0.450013,0.722 0.450013,1.16799 0,1.00501 -0.867981,1.821 -1.937989,1.821 -1.070007,0 -1.937011,-0.81599 -1.937011,-1.821 0,-1.00599 0.867004,-1.82299 1.937011,-1.82299 0.364014,0 0.70398,0.095 0.995972,0.259 -2.123962,-1.71401 -4.270996,-3.509 -6.639954,-5.445008 0.178956,0.276001 0.281983,0.601013 0.281983,0.946015 0,1.007993 -0.867981,1.821003 -1.937988,1.821003 -1.070008,0 -1.937012,-0.81301 -1.937012,-1.821003 0,-1.007004 0.867004,-1.822007 1.937012,-1.822007 0.265991,0 0.520996,0.05 0.755004,0.143006 l -1.416015,-1.14 C 74.58942,94.693412 74.58942,93.424415 76.670414,91.07241 l 1.045959,-1.175995 c -0.297973,0.173996 -0.645996,0.272995 -1.018981,0.272995 -1.070984,0 -1.939026,-0.817001 -1.939026,-1.822006 0,-1.009994 0.868042,-1.822998 1.939026,-1.822998 1.06903,0 1.937011,0.813004 1.937011,1.822998 0,0.235001 -0.04901,0.460007 -0.132995,0.665009 1.542968,-1.745011 3.141967,-3.568009 4.524963,-5.171998 -0.337952,0.265 -0.769958,0.422989 -1.240967,0.422989 -1.070007,0 -1.937011,-0.815994 -1.937011,-1.824997 0,-1.005004 0.867004,-1.820999 1.937011,-1.820999 1.070984,0 1.937989,0.815995 1.937989,1.820999 0,0.309006 -0.08002,0.598008 -0.221985,0.852005 l 1.557006,-1.828002 c 1.081971,-1.434998 1.738953,-1.647004 0.445984,-3.001999 -1.27301,-1.229004 -2.927978,-2.762009 -4.66101,-4.365982 0.174987,0.273986 0.273986,0.595977 0.273986,0.937988 0,1.006988 -0.867004,1.822998 -1.937011,1.822998 -1.070984,0 -1.936951,-0.81601 -1.936951,-1.822998 0,-1.007996 0.865967,-1.822998 1.936951,-1.822998 0.351013,0 0.682007,0.08899 0.967041,0.242004 -1.866028,-1.725006 -3.778992,-3.492004 -5.377991,-5.024994 0.13501,0.25 0.209961,0.529999 0.209961,0.825989 0,1.01001 -0.867004,1.825012 -1.936951,1.825012 -1.072021,0 -1.938049,-0.815002 -1.938049,-1.825012 0,-1.006988 0.866028,-1.822998 1.938049,-1.822998 0.332947,0 0.647949,0.07999 0.919983,0.221008 -0.867004,-0.845001 -1.604004,-1.59201 -2.142029,-2.182006 -1.791992,-2.113007 -1.685974,-3.610016 0.106995,-5.528015 0.583008,-0.586976 1.28302,-1.319977 2.069031,-2.146973 -0.307984,0.191986 -0.676026,0.303985 -1.070984,0.303985 -1.071045,0 -1.939026,-0.815002 -1.939026,-1.822998 0,-1.009002 0.867981,-1.821991 1.939026,-1.821991 1.067993,0 1.934997,0.812989 1.934997,1.821991 0,0.300995 -0.07605,0.583008 -0.210998,0.830994 1.475952,-1.553009 3.19397,-3.350006 4.962952,-5.067993 -0.276978,0.144012 -0.596985,0.225983 -0.936951,0.225983 -1.070007,0 -1.937012,-0.815979 -1.937012,-1.822998 0,-1.005982 0.867005,-1.822998 1.937012,-1.822998 1.07196,0 1.938965,0.817016 1.938965,1.822998 0,0.304016 -0.08099,0.595001 -0.222962,0.847015 0.590943,-0.561005 1.185974,-1.108002 1.776001,-1.631012 1.363953,-1.095978 1.58899,-1.888977 0.787964,-2.756988 -1.830017,-1.712006 -3.484009,-3.161011 -5.00299,-4.509003 0.195007,0.286011 0.309997,0.623993 0.309997,0.989014 0,1.006988 -0.869995,1.822998 -1.939026,1.822998 -1.069946,0 -1.93695,-0.81601 -1.93695,-1.822998 0,-1.006012 0.867004,-1.824006 1.93695,-1.824006 0.348023,0 0.673035,0.08701 0.956055,0.238007 -1.90802,-1.700012 -3.609009,-3.272003 -5.198059,-5.055023 0.143005,0.253998 0.223999,0.542999 0.223999,0.850006 0,1.006012 -0.866944,1.822998 -1.936951,1.822998 -1.072021,0 -1.937012,-0.816986 -1.937012,-1.822998 0,-1.01001 0.864991,-1.824982 1.937012,-1.824982 0.462952,0 0.886963,0.152985 1.219971,0.406983 l -0.34198,-0.403992 c -0.773987,-0.942017 -2.075012,-3.209992 -2.067993,-7.574003 -0.126038,0.890991 -0.937012,1.582 -1.920044,1.582 -1.069947,0 -1.936951,-0.817993 -1.936951,-1.825012 0,-1.004974 0.867004,-1.822998 1.936951,-1.822998 0.998047,0 1.819031,0.707001 1.926025,1.621002 0.01703,-0.772979 0.073,-1.605987 0.179016,-2.501983 M 82.167427,7.7334075 c 0,1.0070186 0.866943,1.8250117 1.937988,1.8250117 1.070008,0 1.937012,-0.8179932 1.937012,-1.8250117 0,-1.0059814 -0.867004,-1.8209839 -1.937012,-1.8209839 -1.071045,0 -1.937988,0.8150025 -1.937988,1.8209839"
         clip-path="url(#SVGID_2_)"
         id="path10"
         transform="matrix(1.6499246,0,0,1.6499246,-400.3199,530.68936)" /><g
         id="g2204"
         transform="matrix(2.3813417,0,0,2.3813417,-193.99963,235.17786)"><path
           class="st1"
           d="M 7.2461643,186.39212 H 21.776194 v -5.966 H 7.2461643 v -7.77001 H 22.20521 v -5.92 H 0.7572119 v 33.67301 H 22.680185 v -5.966 H 7.2461643 Z m 24.9190087,-17.345 h -6.523989 v 31.366 h 22.099001 v -5.607 H 32.165173 Z m 44.097042,13.336 c 0.75,-0.508 1.375976,-1.099 1.856994,-1.77901 0.894959,-1.25 1.345948,-2.81599 1.345948,-4.65199 0,-2.93801 -0.988953,-5.25501 -2.94397,-6.87801 -1.900025,-1.582 -4.588013,-2.384 -7.992004,-2.384 H 58.193188 v 33.75101 h 12.075008 c 3.53302,0 6.39502,-0.86301 8.503967,-2.569 2.170044,-1.752 3.27002,-4.129 3.27002,-7.06 0,-2.293 -0.723023,-4.27701 -2.14801,-5.89101 -0.945984,-1.073 -2.165955,-1.918 -3.631958,-2.53799 m -11.607056,-9.67501 h 3.415039 c 1.721985,0 2.95697,0.28901 3.671997,0.86001 0.659973,0.52499 0.979981,1.39799 0.979981,2.664 0,1.405 -0.427002,2.39999 -1.30597,3.05099 -0.955993,0.70401 -2.513,1.06201 -4.627014,1.06201 h -2.134033 z m 9.434021,20.691 c -0.85498,0.64801 -2.299988,0.977 -4.299988,0.977 h -5.134033 v -7.96499 h 4.400024 c 2.255982,0 3.898011,0.35 4.877015,1.044 0.888,0.624 1.320007,1.618 1.320007,3.029 0,1.365 -0.380005,2.319 -1.163025,2.91499 m 56.38502,-11.44899 c -0.011,-0.005 -0.66498,-0.371 -0.66498,-0.371 -4.44105,-2.58 -4.92304,-3.965 -4.92304,-4.44301 0,-0.69299 0.29303,-1.22699 0.92102,-1.68399 0.70398,-0.51201 1.64996,-0.77001 2.81598,-0.77001 1.013,0 2.04499,0.207 3.06604,0.614 1.05597,0.422 2.237,1.121 3.508,2.075 l 1.46997,1.097 v -6.991 l -0.46301,-0.265 c -1.22797,-0.69899 -2.46796,-1.22299 -3.67798,-1.56 -1.22101,-0.34199 -2.47601,-0.51399 -3.73499,-0.51399 -2.86402,0 -5.25299,0.788 -7.10102,2.34099 -1.89203,1.59201 -2.85101,3.66 -2.85101,6.142 0,1.77301 0.508,3.33 1.51501,4.63 0.961,1.24001 3.17499,2.892 6.76502,5.04201 2.65601,1.567 3.63898,2.398 3.99396,2.821 0.45002,0.534 0.66901,1.133 0.66901,1.83499 0,0.83501 -0.29797,1.45 -0.94501,1.933 -0.70697,0.53201 -1.729,0.802 -3.03296,0.802 -1.27301,0 -2.48999,-0.28999 -3.612,-0.86999 -1.16101,-0.60001 -2.41303,-1.607 -3.72205,-3.00101 l -1.58899,-1.69099 v 8.12899 l 0.35803,0.27701 c 1.30298,1.006 2.68702,1.752 4.10798,2.211 1.41601,0.463 3.013,0.69699 4.74799,0.69699 2.85303,0 5.23602,-0.78799 7.09204,-2.33499 1.90295,-1.59201 2.86798,-3.63901 2.86798,-6.076 0,-2.092 -0.51202,-3.88401 -1.52399,-5.327 -0.99401,-1.42 -2.97302,-2.972 -6.057,-4.748 m 38.87402,13.30899 c 2.33289,-2.797 3.51489,-6.107 3.51489,-9.84299 0,-2.27701 -0.4209,-4.423 -1.24499,-6.38 -0.82691,-1.95601 -2.0719,-3.754 -3.69898,-5.34 -1.55395,-1.52701 -3.37695,-2.718 -5.42199,-3.53401 -2.03699,-0.81599 -4.21796,-1.23099 -6.48395,-1.23099 -2.22302,0 -4.37201,0.41199 -6.38898,1.22 -2.01904,0.81 -3.854,2.00099 -5.44702,3.54 -1.57397,1.51899 -2.80499,3.293 -3.65802,5.27699 -0.85699,1.987 -1.28998,4.06201 -1.28998,6.16801 0,3.85399 1.16699,7.278 3.46997,10.17899 2.25904,2.85001 5.28504,4.765 8.98603,5.71301 2.71301,1.93199 5.32501,3.42699 7.75402,4.44499 2.52289,1.053 4.84491,1.588 6.9029,1.588 0.27905,0 0.49402,-0.003 0.64404,-0.01 0.17896,-0.013 0.36096,-0.037 0.54504,-0.075 l 0.24598,-0.048 0.18798,-0.16499 4.03601,-3.51499 0.50293,-0.436 -0.23498,-0.619 -0.1709,-0.45 -0.28503,-0.752 -0.79004,0.15399 c -0.55396,0.11 -1.07202,0.192 -1.53003,0.24701 -0.45191,0.053 -0.8689,0.076 -1.23902,0.076 -1.17297,0 -2.42089,-0.16499 -3.70092,-0.50099 -0.68799,-0.178 -1.43897,-0.427 -2.24707,-0.724 2.8601,-1.144 5.229,-2.80701 7.04211,-4.98401 m -3.70605,-6.61299 c -0.52295,1.257 -1.27906,2.384 -2.24805,3.356 -1.01392,1.03099 -2.15698,1.81799 -3.40295,2.34 -1.245,0.52299 -2.58295,0.787 -3.97797,0.787 -1.35101,0 -2.67798,-0.274 -3.94702,-0.81601 -1.27698,-0.54599 -2.41498,-1.323 -3.38397,-2.30699 -0.97303,-0.97301 -1.724,-2.10201 -2.24299,-3.358 -0.513,-1.25101 -0.77703,-2.592 -0.77703,-3.983 0,-1.403 0.26403,-2.76 0.77801,-4.02601 0.51599,-1.26399 1.26599,-2.382 2.22998,-3.32199 1.01203,-0.98901 2.16699,-1.76201 3.43305,-2.29501 1.25494,-0.53 2.57299,-0.79799 3.90997,-0.79799 1.39801,0 2.73797,0.267 3.98901,0.78699 1.24701,0.52501 2.37091,1.291 3.33893,2.289 1.021,1.03401 1.79602,2.18201 2.31201,3.41901 0.51599,1.23399 0.77698,2.56199 0.77698,3.946 0,1.388 -0.26392,2.72999 -0.78796,3.981 m 30.60205,-0.35001 c 0,1.88901 -0.65308,3.35901 -2.00305,4.50101 -1.37598,1.164 -3.24695,1.756 -5.56104,1.756 -1.38196,0 -2.62598,-0.232 -3.69592,-0.685 -1.05103,-0.442 -1.974,-1.127 -2.745,-2.034 -0.37805,-0.46001 -0.65808,-1.022 -0.82605,-1.666 -0.125,-0.48601 -0.27698,-1.53601 -0.27698,-3.77101 v -17.325 h -6.09606 v 17.49601 c 0,2.43899 0.16503,4.221 0.50805,5.438 0.35205,1.25099 0.95496,2.39599 1.797,3.41099 1.31897,1.633 2.97095,2.896 4.89905,3.74701 1.91296,0.844 4.078,1.27199 6.43591,1.27199 4,0 7.30298,-1.108 9.81702,-3.3 2.55407,-2.224 3.84802,-5.15599 3.84802,-8.71599 v -19.34801 h -6.10095 z m 15.95092,6.41701 v -7.228 h 14.61499 v -5.679 h -14.61499 v -6.966 h 15.047 v -5.64 h -21.60303 v 31.19099 h 22.08301 v -5.67799 z m -99.98096,-21.25 c -1.56396,-1.49501 -3.39801,-2.657 -5.453,-3.45601 -2.04901,-0.795 -4.24097,-1.196 -6.51398,-1.196 -2.231018,0 -4.392029,0.39801 -6.416016,1.19 -2.028991,0.78501 -3.872985,1.948 -5.481994,3.45601 -1.583985,1.48299 -2.822998,3.215 -3.684021,5.15599 -0.862,1.946 -1.299988,3.97701 -1.299988,6.04401 0,2.202 0.427002,4.30099 1.265991,6.244 0.83899,1.943 2.08899,3.706 3.716004,5.24399 1.56604,1.48001 3.39801,2.636 5.447998,3.438 2.048034,0.803 4.218994,1.21201 6.452026,1.21201 2.28796,0 4.474,-0.395 6.492,-1.17601 2.02198,-0.78499 3.87598,-1.94899 5.51099,-3.467 1.57098,-1.47 2.802,-3.197 3.65497,-5.13 0.85504,-1.935 1.289,-3.987 1.289,-6.09299 0,-2.23201 -0.422,-4.333 -1.25397,-6.248 -0.833,-1.914 -2.086,-3.67001 -3.72601,-5.218 m -2.27496,15.21399 c -0.52405,1.22601 -1.28302,2.32501 -2.25806,3.27101 -0.98895,0.97299 -2.12396,1.71899 -3.37299,2.218 -1.255,0.50099 -2.61999,0.75499 -4.06097,0.75499 -1.395996,0 -2.752991,-0.263 -4.036987,-0.776 -1.275025,-0.50999 -2.403015,-1.246 -3.344055,-2.19099 -0.981995,-0.952 -1.737,-2.051 -2.254944,-3.27201 -0.516052,-1.22 -0.778015,-2.522 -0.778015,-3.871 0,-1.35899 0.261963,-2.67799 0.778991,-3.91299 0.516968,-1.23 1.268982,-2.317 2.234009,-3.23 1.020996,-0.96901 2.18396,-1.724 3.45697,-2.244 1.265992,-0.517 2.593994,-0.782 3.944031,-0.782 1.409,0 2.76196,0.259 4.02496,0.774 1.25403,0.50899 2.38703,1.26099 3.357,2.235 1.02405,1.004 1.80401,2.12599 2.32202,3.329 0.51398,1.19699 0.776,2.487 0.776,3.83099 0,1.349 -0.26501,2.64801 -0.78796,3.866"
           clip-path="url(#SVGID_2_)"
           id="path12"
           transform="translate(37.818726)" /><g
           id="g2189"
           transform="translate(22.733949)"><path
             class="st1"
             d="m 17.615,149.29741 c 0,2.345 0.647949,4.20801 1.947998,5.59001 1.29895,1.381 3.033996,2.06999 5.209961,2.06999 2.176025,0 3.911987,-0.68899 5.212036,-2.06999 1.297973,-1.382 1.94696,-3.24501 1.94696,-5.59001 v -12.80899 h 1.806032 v 12.713 c 0,2.94099 -0.809997,5.27099 -2.429018,6.996 -1.619018,1.724 -3.801025,2.587 -6.543029,2.587 -2.731995,0 -4.903992,-0.86 -6.511963,-2.576 -1.609986,-1.72301 -2.411988,-4.05501 -2.411988,-7.007 v -12.713 H 17.615 Z"
             clip-path="url(#SVGID_2_)"
             id="path14" /><polygon
             class="st1"
             points="56.300121,156.8063 42.189098,139.78032 42.189098,156.8063 40.656139,156.8063 40.656139,137.55331 42.248119,137.55331 56.182079,154.35431 56.182079,137.55331 57.714123,137.55331 57.714123,156.8063 "
             clip-path="url(#SVGID_2_)"
             id="polygon16" /><rect
             x="64.685982"
             y="137.83351"
             class="st1"
             width="1.6450195"
             height="19.251999"
             clip-path="url(#SVGID_2_)"
             id="rect18" /><polygon
             class="st1"
             points="79.950386,157.42661 71.864388,137.8336 73.540352,137.8336 80.059334,153.99261 86.633369,137.8336 88.254341,137.8336 80.195381,157.42661 "
             clip-path="url(#SVGID_2_)"
             id="polygon20" /><polygon
             class="st1"
             points="103.17701,139.07391 94.392036,139.07391 94.392036,146.71391 102.89204,146.71391 102.89204,147.95491 94.392036,147.95491 94.392036,155.7919 103.39399,155.7919 103.39399,157.0849 92.85804,157.0849 92.85804,137.8329 103.17701,137.8329 "
             clip-path="url(#SVGID_2_)"
             id="polygon22" /><path
             class="st2"
             d="m 111.72993,139.13161 v 7.382 h 1.16699 c 1.45099,0 2.45697,-0.034 3.018,-0.106 0.56299,-0.077 1.03595,-0.19699 1.41596,-0.37399 0.69702,-0.31202 1.22003,-0.74701 1.57001,-1.30301 0.34802,-0.56099 0.52203,-1.25299 0.52203,-2.077 0,-1.121 -0.38904,-1.989 -1.17505,-2.602 -0.78497,-0.61499 -1.89599,-0.92 -3.33697,-0.92 z m -1.534,-1.29801 h 4.633 c 2.02099,0 3.57098,0.416 4.64996,1.24601 1.07904,0.833 1.61798,2.022 1.61798,3.57099 0,1.18502 -0.29999,2.16501 -0.90399,2.944 -0.60199,0.78 -1.51398,1.36802 -2.72699,1.765 0.34399,0.20002 0.659,0.433 0.93799,0.69901 0.281,0.269 0.53302,0.571 0.76001,0.91099 l 5.23901,8.11602 h -1.72497 l -3.03602,-4.73401 c -0.59802,-0.927 -1.11401,-1.69 -1.54998,-2.288 -0.43402,-0.6 -0.77906,-1.03 -1.034,-1.283 -0.33606,-0.341 -0.77801,-0.58499 -1.33405,-0.729 -0.55096,-0.137 -1.36297,-0.21 -2.43096,-0.21 h -1.56299 v 9.24401 h -1.534 z"
             clip-path="url(#SVGID_2_)"
             id="path24" /><path
             class="st1"
             d="m 138.38759,140.57291 c -0.78803,-0.54099 -1.54102,-0.939 -2.25104,-1.198 -0.71197,-0.25699 -1.41797,-0.383 -2.117,-0.383 -1.15497,0 -2.09796,0.33901 -2.831,1.023 -0.73602,0.68501 -1.104,1.546 -1.104,2.58 0,0.845 0.23602,1.532 0.70703,2.063 0.47101,0.53101 1.48596,1.135 3.047,1.80501 0.088,0.034 0.22699,0.091 0.40796,0.16399 1.76501,0.72601 2.94,1.423 3.52899,2.095 0.41302,0.448 0.72302,0.964 0.93402,1.541 0.216,0.578 0.32202,1.19301 0.32202,1.84401 0,1.53499 -0.52801,2.79399 -1.58301,3.78099 -1.057,0.989 -2.40503,1.48001 -4.04999,1.48001 -0.82501,0 -1.64202,-0.14301 -2.45599,-0.427 -0.81,-0.28601 -1.63,-0.71401 -2.45801,-1.287 v -1.86901 c 0.89801,0.703 1.75098,1.23 2.555,1.57401 0.80096,0.34199 1.58001,0.51599 2.33197,0.51599 1.24499,0 2.229,-0.34599 2.953,-1.032 0.72803,-0.69099 1.08801,-1.623 1.08801,-2.808 0,-0.86799 -0.24499,-1.586 -0.73797,-2.14 -0.49604,-0.55299 -1.62305,-1.203 -3.38001,-1.947 -1.82098,-0.76 -3.06799,-1.53 -3.73901,-2.305 -0.66797,-0.776 -1.00299,-1.768 -1.00299,-2.96699 0,-1.49701 0.51098,-2.72 1.52899,-3.66901 1.02099,-0.95199 2.35199,-1.42599 3.99402,-1.42599 0.74298,0 1.46899,0.104 2.177,0.30999 0.70697,0.20701 1.41699,0.527 2.13501,0.959 z"
             clip-path="url(#SVGID_2_)"
             id="path28" /><rect
             x="145.15303"
             y="137.83351"
             class="st1"
             width="1.6450195"
             height="19.251999"
             clip-path="url(#SVGID_2_)"
             id="rect30" /><path
             class="st2"
             d="m 160.15614,139.21661 h -4.60302 v 16.514 h 4.60302 c 1.25202,0 2.331,-0.101 3.23297,-0.314 0.90503,-0.209 1.68201,-0.54001 2.33704,-0.99 1.06091,-0.715 1.89392,-1.687 2.49597,-2.918 0.60401,-1.228 0.90894,-2.575 0.90894,-4.034 0,-1.459 -0.30493,-2.80499 -0.90894,-4.039 -0.60205,-1.235 -1.43506,-2.211 -2.49597,-2.92501 -0.65503,-0.45199 -1.43201,-0.778 -2.33704,-0.98699 -0.90197,-0.202 -1.98095,-0.307 -3.23297,-0.307 m 0.38202,-1.38301 c 1.45191,0 2.68994,0.14202 3.70899,0.42202 1.02099,0.27699 1.93896,0.71899 2.75793,1.32699 1.19507,0.898 2.12805,2.039 2.79407,3.42 0.66894,1.38 1.00195,2.864 1.00195,4.45199 0,1.57901 -0.33301,3.056 -1.00195,4.43702 -0.66602,1.38199 -1.599,2.52099 -2.79407,3.418 -0.81897,0.61699 -1.74499,1.06599 -2.78003,1.34999 -1.03198,0.287 -2.26294,0.42601 -3.68689,0.42601 h -6.60101 V 137.8336 Z"
             clip-path="url(#SVGID_2_)"
             id="path32" /><path
             class="st2"
             d="m 178.41719,149.44391 h 6.979 l -3.48498,-8.34601 z m -4.73291,7.64099 7.93091,-18.53699 h 0.58398 l 7.92908,18.53699 h -1.53503 l -2.69104,-6.39999 h -7.99195 l -2.677,6.39999 z"
             clip-path="url(#SVGID_2_)"
             id="path36" /><path
             class="st2"
             d="m 201.91731,139.21661 h -4.604 v 16.514 h 4.604 c 1.25391,0 2.32801,-0.101 3.23291,-0.314 0.90308,-0.209 1.68006,-0.54001 2.33399,-0.99 1.06311,-0.715 1.89599,-1.687 2.49804,-2.918 0.60498,-1.228 0.90601,-2.575 0.90601,-4.034 0,-1.459 -0.30103,-2.80499 -0.90601,-4.039 -0.60205,-1.235 -1.43493,-2.211 -2.49804,-2.92501 -0.65393,-0.45199 -1.43091,-0.778 -2.33399,-0.98699 -0.9049,-0.202 -1.979,-0.307 -3.23291,-0.307 m 0.38001,-1.38301 c 1.4519,0 2.68994,0.14202 3.70996,0.42202 1.02099,0.27699 1.93994,0.71899 2.75598,1.32699 1.19702,0.898 2.13098,2.039 2.797,3.42 0.66601,1.38 1.00305,2.864 1.00305,4.45199 0,1.57901 -0.33704,3.056 -1.00305,4.43702 -0.66602,1.38199 -1.59998,2.52099 -2.797,3.418 -0.81604,0.61699 -1.74304,1.06599 -2.77795,1.34999 -1.03309,0.287 -2.26307,0.42601 -3.68799,0.42601 h -6.6001 V 137.8336 Z"
             clip-path="url(#SVGID_2_)"
             id="path40" /></g></g></g></g><text
     xml:space="preserve"
     style="font-style:normal;font-variant:normal;font-weight:normal;font-stretch:normal;font-size:32.1541px;font-family:sans-serif;-inkscape-font-specification:sans-serif;fill:#374323;fill-opacity:1;stroke-width:2.67952"
     x="-748.05066"
     y="839.27283"
     id="text4195"><tspan
       sodipodi:role="line"
       id="tspan4193"
       style="font-style:normal;font-variant:normal;font-weight:normal;font-stretch:normal;font-family:sans-serif;-inkscape-font-specification:sans-serif;fill:#374323;fill-opacity:1;stroke-width:2.67952"
       x="-748.05066"
       y="839.27283">Vigilada Mineducación</tspan></text></g></g>
</g>
</svg>
